<!-- SVG sprite met iconen voor Soundcloud, Facebook, Instagram, Resident Advisor, Mail -->
<svg xmlns="http://www.w3.org/2000/svg" style="display:none">
  <symbol id="icon-soundcloud" viewBox="0 0 32 32">
    <path d="M12.5 25.5c-0.6 0-1-0.4-1-1v-10c0-0.6 0.4-1 1-1s1 0.4 1 1v10c0 0.6-0.4 1-1 1zM15.5 25.5c-0.6 0-1-0.4-1-1v-7c0-0.6 0.4-1 1-1s1 0.4 1 1v7c0 0.6-0.4 1-1 1zM18.5 25.5c-0.6 0-1-0.4-1-1v-5c0-0.6 0.4-1 1-1s1 0.4 1 1v5c0 0.6-0.4 1-1 1zM21.5 25.5c-0.6 0-1-0.4-1-1v-3c0-0.6 0.4-1 1-1s1 0.4 1 1v3c0 0.6-0.4 1-1 1zM24.5 25.5c-0.6 0-1-0.4-1-1v-1c0-0.6 0.4-1 1-1s1 0.4 1 1v1c0 0.6-0.4 1-1 1zM10.5 25.5c-0.6 0-1-0.4-1-1v-7c0-0.6 0.4-1 1-1s1 0.4 1 1v7c0 0.6-0.4 1-1 1zM8.5 25.5c-0.6 0-1-0.4-1-1v-5c0-0.6 0.4-1 1-1s1 0.4 1 1v5c0 0.6-0.4 1-1 1z"/>
  </symbol>
  <symbol id="icon-facebook" viewBox="0 0 32 32">
    <path d="M19 6h5V0h-5c-5.5 0-10 4.5-10 10v4H4v6h5v12h6V20h5l1-6h-6v-4c0-2.2 1.8-4 4-4z"/>
  </symbol>
  <symbol id="icon-instagram" viewBox="0 0 32 32">
    <circle cx="16" cy="16" r="6"/>
    <rect x="2" y="2" width="28" height="28" rx="8"/>
    <circle cx="24" cy="8" r="2"/>
  </symbol>
  <symbol id="icon-ra" viewBox="0 0 32 32">
    <path d="M2 16c0-7.7 6.3-14 14-14s14 6.3 14 14-6.3 14-14 14S2 23.7 2 16zm21.2 2.2c-1.2 1.2-2.8 1.8-4.5 1.8-2.5 0-4.7-1.5-5.7-3.7l-2.2 1.1c1.4 3.1 4.6 5.3 7.9 5.3 2.3 0 4.5-0.9 6.1-2.5l-1.6-2z"/>
  </symbol>
  <symbol id="icon-mail" viewBox="0 0 32 32">
    <path d="M4 8v16h24V8H4zm12 9.5L6.5 10h19L16 17.5z"/>
  </symbol>
</svg>
